<?xml version="1.0" standalone="no"?>
<!DOCTYPE svg PUBLIC "-//W3C//DTD SVG 20010904//EN"
 "http://www.w3.org/TR/2001/REC-SVG-20010904/DTD/svg10.dtd">
<svg version="1.0" xmlns="http://www.w3.org/2000/svg"
 width="327.000000pt" height="327.000000pt" viewBox="0 0 327.000000 327.000000"
 preserveAspectRatio="xMidYMid meet">
<metadata>
Created by potrace 1.14, written by Peter Selinger 2001-2017
</metadata>
<g transform="translate(0.000000,327.000000) scale(0.100000,-0.100000)"
fill="#000000" stroke="none">
<path d="M443 2164 c-122 -20 -263 -97 -244 -132 5 -9 28 -73 51 -142 61 -180
46 -170 148 -95 48 36 148 110 222 165 74 55 146 109 160 119 l25 20 -59 26
c-56 25 -112 38 -196 48 -19 2 -67 -2 -107 -9z"/>
<path d="M1323 2169 c-17 -5 -43 -24 -58 -41 -22 -26 -26 -39 -22 -71 7 -49
25 -68 100 -107 34 -17 70 -39 80 -47 18 -17 22 -50 9 -69 -21 -32 -111 -46
-154 -23 -23 12 -27 10 -33 -20 -5 -28 18 -39 88 -44 75 -5 140 22 161 68 36
76 10 124 -97 179 -76 38 -94 59 -82 95 10 32 83 46 155 29 9 -2 16 6 18 19 3
17 -3 26 -23 33 -32 12 -98 12 -142 -1z"/>
<path d="M1805 2173 c-39 -4 -41 -6 -59 -56 -10 -29 -45 -119 -77 -201 -33
-83 -59 -153 -59 -156 0 -4 14 -7 31 -6 29 1 34 6 52 54 l20 52 48 1 c27 0 70
1 97 1 l47 1 22 -54 c20 -49 24 -54 57 -57 34 -3 35 -3 26 25 -19 64 -157 404
-162 401 -2 -1 -21 -3 -43 -5z m85 -258 c0 -1 -36 -2 -79 -2 -77 -1 -79 0 -71
21 4 11 23 59 41 105 l32 83 39 -102 c21 -57 38 -104 38 -105z"/>
<path d="M2193 2172 l-23 -3 3 -207 2 -207 119 0 120 0 1 28 2 27 -89 0 -88 0
0 179 c0 189 0 191 -47 183z"/>
<path d="M2597 2172 c-15 -3 -17 -25 -17 -211 l0 -208 125 0 c124 0 125 1 125
24 0 27 6 25 -92 27 -42 1 -80 4 -83 8 -5 5 -9 77 -6 116 1 8 24 12 81 12 79
0 80 0 80 25 0 27 0 27 -98 27 -29 0 -55 5 -58 10 -4 6 -7 33 -7 62 l0 51 84
3 c84 3 105 12 90 41 -7 11 -32 15 -108 15 -55 1 -107 0 -116 -2z"/>
<path d="M3064 2160 c-66 -33 -86 -96 -47 -148 11 -15 53 -45 93 -68 91 -50
107 -86 59 -130 -14 -13 -31 -15 -76 -12 -32 3 -65 8 -73 12 -12 5 -16 -1 -18
-23 -2 -26 2 -30 30 -37 148 -33 259 38 228 146 -11 37 -26 50 -119 100 -37
20 -68 44 -72 57 -18 49 59 86 135 65 32 -9 34 -8 39 15 3 19 -1 26 -20 34
-41 15 -115 10 -159 -11z"/>
<path d="M764 2043 c-28 -21 -89 -67 -137 -103 l-88 -64 23 -19 c13 -10 34
-26 48 -35 32 -22 390 -288 412 -306 23 -20 30 -1 34 104 6 154 -45 289 -153
397 -35 35 -68 63 -76 63 -7 0 -35 -17 -63 -37z"/>
<path d="M135 1994 c-92 -107 -128 -199 -131 -336 -2 -91 16 -195 36 -208 5
-3 82 -4 173 -2 l165 3 -8 27 c-8 27 -156 454 -182 525 l-14 38 -39 -47z"/>
<path d="M709 1523 c-29 -87 -54 -162 -55 -168 -2 -5 -21 -63 -42 -127 l-40
-117 31 5 c123 22 241 86 320 174 47 52 107 155 107 183 0 11 -231 192 -260
205 -4 1 -31 -68 -61 -155z"/>
<path d="M1315 1516 c-48 -21 -70 -53 -70 -100 0 -50 18 -72 95 -111 104 -55
125 -94 73 -135 -23 -18 -37 -21 -78 -17 -27 3 -59 8 -71 12 -18 6 -21 3 -20
-21 2 -33 23 -41 104 -43 97 -2 162 46 162 119 0 51 -29 84 -109 125 -80 40
-95 56 -87 90 9 34 48 48 116 41 53 -5 56 -4 58 18 1 13 -4 26 -11 28 -29 11
-134 7 -162 -6z"/>
<path d="M1735 1511 c-78 -36 -124 -107 -125 -192 0 -135 86 -220 223 -220 59
0 94 10 99 29 9 33 -1 40 -44 30 -75 -17 -150 9 -181 62 -24 39 -30 121 -12
163 30 72 112 108 197 88 26 -6 38 -5 41 3 7 21 -5 44 -26 50 -45 12 -133 5
-172 -13z"/>
<path d="M2170 1514 c-43 -18 -86 -73 -101 -128 -15 -54 -6 -147 18 -194 61
-117 254 -125 329 -13 48 73 44 220 -8 286 -46 59 -160 82 -238 49z m141 -50
c63 -32 88 -156 50 -241 -52 -113 -191 -89 -221 38 -35 145 62 260 171 203z"/>
<path d="M2580 1520 c-7 -4 -10 -74 -8 -210 l3 -205 33 -1 32 -1 0 93 0 94 33
0 c45 0 53 -8 82 -75 47 -108 48 -110 83 -111 38 0 38 2 11 69 -35 86 -53 118
-74 133 -15 11 -16 14 -4 14 29 0 67 39 73 75 9 47 -16 99 -55 116 -32 13
-191 20 -209 9z m176 -62 c23 -23 25 -61 5 -87 -13 -18 -31 -25 -70 -29 l-51
-5 0 70 0 70 52 -3 c28 -2 57 -9 64 -16z"/>
<path d="M3009 1495 c-1 -37 -1 -342 0 -370 1 -20 7 -21 123 -20 l122 0 0 25
c0 25 0 25 -89 25 l-90 0 0 70 0 70 83 0 c81 -1 82 0 82 25 0 25 -1 25 -82 25
l-82 0 -1 62 c-1 35 4 64 10 66 5 2 45 3 88 2 76 -1 77 -1 77 25 l0 25 -120 0
-120 0 -1 -30z"/>
<path d="M50 1425 c0 -24 54 -101 109 -155 75 -74 184 -133 266 -144 28 -4 64
-9 80 -12 17 -2 35 -1 41 4 6 4 34 76 62 160 l50 152 -304 0 c-167 0 -304 -2
-304 -5z"/>
</g>
</svg>
